<?xml version="1.0" encoding="UTF-8" standalone="no"?>
<!-- Created with Inkscape (http://www.inkscape.org/) -->

<svg
   width="48"
   height="48"
   viewBox="0 0 48 48"
   version="1.1"
   id="svg5"
   xmlns:inkscape="http://www.inkscape.org/namespaces/inkscape"
   xmlns:sodipodi="http://sodipodi.sourceforge.net/DTD/sodipodi-0.dtd"
   xmlns="http://www.w3.org/2000/svg"
   xmlns:svg="http://www.w3.org/2000/svg">
  <sodipodi:namedview
     id="namedview7"
     pagecolor="#505050"
     bordercolor="#ffffff"
     borderopacity="1"
     inkscape:showpageshadow="0"
     inkscape:pageopacity="0"
     inkscape:pagecheckerboard="1"
     inkscape:deskcolor="#505050"
     inkscape:document-units="px"
     showgrid="false" />
  <defs
     id="defs2" />
  <g
     inkscape:label="Layer 1"
     inkscape:groupmode="layer"
     id="layer1">
    <rect
       style="fill:#bbb49c;fill-opacity:1;fill-rule:evenodd;stroke-width:0.7;stroke-linecap:round;stroke-linejoin:round"
       id="rect234"
       width="94.121796"
       height="95.360245"
       x="-23.060898"
       y="-23.680122" />
    <path
       id="path894"
       style="fill:#1e1c15;fill-rule:evenodd;stroke-width:0.534984;stroke-linecap:round;stroke-linejoin:round"
       d="M 48,-29 A 29,29 0 0 0 19,0 29,29 0 0 0 21.044922,10.501953 2.5,2.5 0 0 1 23.5,13 2.5,2.5 0 0 1 22.972656,14.523438 29,29 0 0 0 25.867188,18.701172 2.5,2.5 0 0 1 28,17.5 2.5,2.5 0 0 1 30.5,20 2.5,2.5 0 0 1 29.298828,22.132812 29,29 0 0 0 33.476562,25.027344 2.5,2.5 0 0 1 35,24.5 2.5,2.5 0 0 1 37.498047,26.955078 29,29 0 0 0 48,29 29,29 0 0 0 77,0 29,29 0 0 0 48,-29 Z M 37.498047,26.955078 A 29,29 0 0 1 33.476562,25.027344 2.5,2.5 0 0 0 32.5,27 2.5,2.5 0 0 0 35,29.5 2.5,2.5 0 0 0 37.5,27 2.5,2.5 0 0 0 37.498,26.95508 Z M 29.298828,22.132812 A 29,29 0 0 1 25.867188,18.701172 2.5,2.5 0 0 0 25.5,20 2.5,2.5 0 0 0 28,22.5 2.5,2.5 0 0 0 29.298828,22.132812 Z M 22.972656,14.523438 A 29,29 0 0 1 21.044922,10.501953 2.5,2.5 0 0 0 21,10.5 2.5,2.5 0 0 0 18.5,13 2.5,2.5 0 0 0 21,15.5 2.5,2.5 0 0 0 22.972656,14.523438 Z M 0,10.5 A 2.5,2.5 0 0 0 -2.5,13 2.5,2.5 0 0 0 0,15.5 2.5,2.5 0 0 0 2.5,13 2.5,2.5 0 0 0 0,10.5 Z m 7,0 A 2.5,2.5 0 0 0 4.5,13 2.5,2.5 0 0 0 7,15.5 2.5,2.5 0 0 0 9.5,13 2.5,2.5 0 0 0 7,10.5 Z m 7,0 A 2.5,2.5 0 0 0 11.5,13 2.5,2.5 0 0 0 14,15.5 2.5,2.5 0 0 0 16.5,13 2.5,2.5 0 0 0 14,10.5 Z m 14,0 A 2.5,2.5 0 0 1 30.5,13 2.5,2.5 0 0 1 28,15.5 2.5,2.5 0 0 1 25.5,13 2.5,2.5 0 0 1 28,10.5 Z m 7,0 A 2.5,2.5 0 0 1 37.5,13 2.5,2.5 0 0 1 35,15.5 2.5,2.5 0 0 1 32.5,13 2.5,2.5 0 0 1 35,10.5 Z m -35,7 A 2.5,2.5 0 0 0 -2.5,20 2.5,2.5 0 0 0 0,22.5 2.5,2.5 0 0 0 2.5,20 2.5,2.5 0 0 0 0,17.5 Z m 7,0 A 2.5,2.5 0 0 0 4.5,20 2.5,2.5 0 0 0 7,22.5 2.5,2.5 0 0 0 9.5,20 2.5,2.5 0 0 0 7,17.5 Z m 7,0 A 2.5,2.5 0 0 0 11.5,20 2.5,2.5 0 0 0 14,22.5 2.5,2.5 0 0 0 16.5,20 2.5,2.5 0 0 0 14,17.5 Z m 7,0 A 2.5,2.5 0 0 0 18.5,20 2.5,2.5 0 0 0 21,22.5 2.5,2.5 0 0 0 23.5,20 2.5,2.5 0 0 0 21,17.5 Z m 14,0 A 2.5,2.5 0 0 1 37.5,20 2.5,2.5 0 0 1 35,22.5 2.5,2.5 0 0 1 32.5,20 2.5,2.5 0 0 1 35,17.5 Z m -35,7 A 2.5,2.5 0 0 0 -2.5,27 2.5,2.5 0 0 0 0,29.5 2.5,2.5 0 0 0 2.5,27 2.5,2.5 0 0 0 0,24.5 Z m 7,0 A 2.5,2.5 0 0 0 4.5,27 2.5,2.5 0 0 0 7,29.5 2.5,2.5 0 0 0 9.5,27 2.5,2.5 0 0 0 7,24.5 Z m 7,0 A 2.5,2.5 0 0 0 11.5,27 2.5,2.5 0 0 0 14,29.5 2.5,2.5 0 0 0 16.5,27 2.5,2.5 0 0 0 14,24.5 Z m 7,0 A 2.5,2.5 0 0 0 18.5,27 2.5,2.5 0 0 0 21,29.5 2.5,2.5 0 0 0 23.5,27 2.5,2.5 0 0 0 21,24.5 Z m 7,0 A 2.5,2.5 0 0 0 25.5,27 2.5,2.5 0 0 0 28,29.5 2.5,2.5 0 0 0 30.5,27 2.5,2.5 0 0 0 28,24.5 Z m -28,7 A 2.5,2.5 0 0 0 -2.5,34 2.5,2.5 0 0 0 0,36.5 2.5,2.5 0 0 0 2.5,34 2.5,2.5 0 0 0 0,31.5 Z m 7,0 A 2.5,2.5 0 0 0 4.5,34 2.5,2.5 0 0 0 7,36.5 2.5,2.5 0 0 0 9.5,34 2.5,2.5 0 0 0 7,31.5 Z m 7,0 A 2.5,2.5 0 0 0 11.5,34 2.5,2.5 0 0 0 14,36.5 2.5,2.5 0 0 0 16.5,34 2.5,2.5 0 0 0 14,31.5 Z m 7,0 A 2.5,2.5 0 0 0 18.5,34 2.5,2.5 0 0 0 21,36.5 2.5,2.5 0 0 0 23.5,34 2.5,2.5 0 0 0 21,31.5 Z m 7,0 A 2.5,2.5 0 0 0 25.5,34 2.5,2.5 0 0 0 28,36.5 2.5,2.5 0 0 0 30.5,34 2.5,2.5 0 0 0 28,31.5 Z m 7,0 A 2.5,2.5 0 0 0 32.5,34 2.5,2.5 0 0 0 35,36.5 2.5,2.5 0 0 0 37.5,34 2.5,2.5 0 0 0 35,31.5 Z m -35,7 A 2.5,2.5 0 0 0 -2.5,41 2.5,2.5 0 0 0 0,43.5 2.5,2.5 0 0 0 2.5,41 2.5,2.5 0 0 0 0,38.5 Z m 7,0 A 2.5,2.5 0 0 0 4.5,41 2.5,2.5 0 0 0 7,43.5 2.5,2.5 0 0 0 9.5,41 2.5,2.5 0 0 0 7,38.5 Z m 7,0 A 2.5,2.5 0 0 0 11.5,41 2.5,2.5 0 0 0 14,43.5 2.5,2.5 0 0 0 16.5,41 2.5,2.5 0 0 0 14,38.5 Z m 7,0 A 2.5,2.5 0 0 0 18.5,41 2.5,2.5 0 0 0 21,43.5 2.5,2.5 0 0 0 23.5,41 2.5,2.5 0 0 0 21,38.5 Z m 7,0 A 2.5,2.5 0 0 0 25.5,41 2.5,2.5 0 0 0 28,43.5 2.5,2.5 0 0 0 30.5,41 2.5,2.5 0 0 0 28,38.5 Z m 7,0 A 2.5,2.5 0 0 0 32.5,41 2.5,2.5 0 0 0 35,43.5 2.5,2.5 0 0 0 37.5,41 2.5,2.5 0 0 0 35,38.5 Z m -35,7 A 2.5,2.5 0 0 0 -2.5,48 2.5,2.5 0 0 0 0,50.5 2.5,2.5 0 0 0 2.5,48 2.5,2.5 0 0 0 0,45.5 Z m 7,0 A 2.5,2.5 0 0 0 4.5,48 2.5,2.5 0 0 0 7,50.5 2.5,2.5 0 0 0 9.5,48 2.5,2.5 0 0 0 7,45.5 Z m 7,0 A 2.5,2.5 0 0 0 11.5,48 2.5,2.5 0 0 0 14,50.5 2.5,2.5 0 0 0 16.5,48 2.5,2.5 0 0 0 14,45.5 Z m 7,0 A 2.5,2.5 0 0 0 18.5,48 2.5,2.5 0 0 0 21,50.5 2.5,2.5 0 0 0 23.5,48 2.5,2.5 0 0 0 21,45.5 Z m 7,0 A 2.5,2.5 0 0 0 25.5,48 2.5,2.5 0 0 0 28,50.5 2.5,2.5 0 0 0 30.5,48 2.5,2.5 0 0 0 28,45.5 Z m 7,0 A 2.5,2.5 0 0 0 32.5,48 2.5,2.5 0 0 0 35,50.5 2.5,2.5 0 0 0 37.5,48 2.5,2.5 0 0 0 35,45.5 Z" />
  </g>
</svg>
